<svg width="60" height="60" viewBox="0 0 60 60" fill="none" xmlns="http://www.w3.org/2000/svg">
<g id="Instagram">
<path id="Combined Shape" d="M30.0002 0C46.5687 0.000131943 60.0002 13.4315 60.0002 30C60.0002 46.5685 46.5687 59.9999 30.0002 60C13.4317 60 0.000244141 46.5685 0.000244141 30C0.000244141 13.4315 13.4317 0 30.0002 0ZM29.9983 16C25.6563 16 25.1105 16.0181 23.4045 16.0957C21.7017 16.1737 20.5389 16.4444 19.5217 16.8398C18.4694 17.2485 17.5751 17.7959 16.6858 18.6855C15.7961 19.5747 15.25 20.4678 14.8401 21.5195C14.4435 22.5371 14.1726 23.6999 14.0959 25.4023C14.0196 27.109 14.0002 27.6547 14.0002 32C14.0002 36.3452 14.0186 36.8891 14.0959 38.5957C14.1743 40.2987 14.4449 41.4613 14.8401 42.4785C15.2491 43.5309 15.7961 44.4251 16.6858 45.3145C17.5743 46.2038 18.4668 46.7516 19.5178 47.1602C20.5358 47.5558 21.6997 47.8263 23.4026 47.9043C25.1093 47.982 25.6552 48 30.0002 48C34.3453 48 34.8894 47.982 36.5959 47.9043C38.299 47.8263 39.4628 47.5558 40.4807 47.1602C41.5324 46.7516 42.424 46.204 43.3127 45.3145C44.2026 44.4253 44.7504 43.5322 45.1604 42.4805C45.5537 41.4628 45.8226 40.2984 45.9026 38.5957C45.9792 36.8894 46.0002 36.345 46.0002 32C46.0002 27.6547 45.9793 27.109 45.9026 25.4023C45.8226 23.6994 45.5536 22.5367 45.1604 21.5195C44.7504 20.4672 44.2028 19.5749 43.3127 18.6855C42.4229 17.7957 41.5338 17.2482 40.4807 16.8398C39.4608 16.4442 38.297 16.1737 36.594 16.0957C34.8875 16.018 34.3434 16 29.9983 16Z" fill="white"/>
<path id="Combined Shape_2" fill-rule="evenodd" clip-rule="evenodd" d="M28.5662 18.8834C28.8449 18.883 29.1447 18.8831 29.4683 18.8832L30.0016 18.8834C34.2736 18.8834 34.78 18.8987 36.467 18.9754C38.027 19.0467 38.8737 19.3074 39.4377 19.5264C40.1843 19.8164 40.7167 20.1631 41.2764 20.7231C41.8364 21.2831 42.183 21.8164 42.4737 22.5631C42.6927 23.1264 42.9537 23.9731 43.0247 25.5331C43.1014 27.2198 43.118 27.7265 43.118 31.9965C43.118 36.2666 43.1014 36.7732 43.0247 38.4599C42.9534 40.0199 42.6927 40.8666 42.4737 41.43C42.1837 42.1766 41.8364 42.7083 41.2764 43.268C40.7163 43.828 40.1847 44.1747 39.4377 44.4647C38.8743 44.6847 38.027 44.9447 36.467 45.016C34.7803 45.0927 34.2736 45.1093 30.0016 45.1093C25.7292 45.1093 25.2229 45.0927 23.5362 45.016C21.9762 44.944 21.1295 44.6833 20.5651 44.4643C19.8185 44.1743 19.2851 43.8277 18.7251 43.2676C18.1651 42.7076 17.8184 42.1756 17.5278 41.4286C17.3088 40.8653 17.0478 40.0186 16.9768 38.4586C16.9001 36.7719 16.8848 36.2652 16.8848 31.9925C16.8848 27.7198 16.9001 27.2158 16.9768 25.5291C17.0481 23.9691 17.3088 23.1224 17.5278 22.5584C17.8178 21.8118 18.1651 21.2784 18.7251 20.7184C19.2851 20.1584 19.8185 19.8117 20.5651 19.5211C21.1291 19.3011 21.9762 19.0411 23.5362 18.9694C25.0122 18.9027 25.5842 18.8827 28.5662 18.8794V18.8834ZM38.5423 21.5401C37.4823 21.5401 36.6223 22.3991 36.6223 23.4594C36.6223 24.5195 37.4823 25.3795 38.5423 25.3795C39.6023 25.3795 40.4623 24.5195 40.4623 23.4594C40.4623 22.3994 39.6023 21.5394 38.5423 21.5394V21.5401ZM21.7848 32.0002C21.7848 27.4626 25.4637 23.7836 30.0012 23.7834C34.5389 23.7834 38.217 27.4625 38.217 32.0002C38.217 36.5379 34.5393 40.2153 30.0016 40.2153C25.4639 40.2153 21.7848 36.5379 21.7848 32.0002Z" fill="white"/>
<path id="Shape" fill-rule="evenodd" clip-rule="evenodd" d="M30.0016 26.6665C32.947 26.6665 35.335 29.0542 35.335 31.9999C35.335 34.9453 32.947 37.3333 30.0016 37.3333C27.0559 37.3333 24.6682 34.9453 24.6682 31.9999C24.6682 29.0542 27.0559 26.6665 30.0016 26.6665V26.6665Z" fill="white"/>
</g>
</svg>
